# xmcd CD database file
#
# Track frame offsets:
#	150
#	20661
#	40958
#	65424
#	90147
#	108930
#	123906
#	145262
#	173001
#	192618
#	209786
#	221264
#	237661
#	259607
#
# Disc length: 3600 seconds
#
# Revision: 0
# Processed by: cddbd v1.5PL3 Copyright (c) Steve Scherf et al.
# Submitted via: CDex 1.51
#
DISCID=ca0e0e0e
DTITLE=Salomon - The Art of The Trio - Klezmer
DYEAR=1997
DGENRE=Jazz
TTITLE0=Skvirskaya
TTITLE1=Der Heisser
TTITLE2=Shir Hama'aloth
TTITLE3=D'ror Yikra
TTITLE4=Tshortkover Gipsy
TTITLE5=Dremlen Feygl
TTITLE6=Halaila
TTITLE7=Der Gasn Nign
TTITLE8=Beltzer Chosidl
TTITLE9=Armenia
TTITLE10=Hot zich mir di schich tserisn
TTITLE11=Yismechu
TTITLE12=Nign
TTITLE13=Kel Adon
EXTD=YEAR: 1997
EXTT0=
EXTT1=
EXTT2=
EXTT3=
EXTT4=
EXTT5=
EXTT6=
EXTT7=
EXTT8=
EXTT9=
EXTT10=
EXTT11=
EXTT12=
EXTT13=
PLAYORDER=
